<svg xmlns="http://www.w3.org/2000/svg" xmlns:svgjs="http://svgjs.com/svgjs" xmlns:xlink="http://www.w3.org/1999/xlink" width="288" height="288"><circle cx="144" cy="144" r="144" fill="#080809" transform="translate(30.01 30.01) scale(.7916)"/><svg xmlns="http://www.w3.org/2000/svg" width="288" height="288" transform="matrix(.89 0 0 .89 14.718 17.397)" version="1.0" viewBox="0 0 192 162"><g fill="#fff" class="color000 svgShape" transform="matrix(.1 0 0 -.1 0 162)"><path d="M1102 1218 c-16 -16 -15 -43 3 -58 8 -7 15 -27 15 -46 l0 -33 -57 -3-58 -3 -3 -42 c-3 -38 -6 -43 -28 -43 -13 0 -24 6 -25 13 -1 6 -2 39 -3 72
l-1 60 -60 3 c-40 2 -64 8 -72 19 -29 38 -86 -15 -62 -59 12 -22 64 -25 73 -3
3 10 19 15 45 15 l39 0 4 -50 c4 -64 2 -70 -28 -70 -33 0 -97 -33 -143 -75
-25 -23 -45 -33 -59 -30 -34 6 -42 14 -42 41 0 22 -4 24 -50 24 l-50 0 0 79
c0 61 3 80 15 85 33 12 1 78 -35 73 -40 -6 -55 -52 -25 -77 11 -9 15 -35 15
-101 l0 -89 50 0 c49 0 50 -1 50 -30 0 -28 2 -30 40 -30 33 0 40 -3 40 -20 0
-11 -3 -20 -7 -21 -13 -1 -85 -8 -153 -14 -36 -4 -69 -10 -74 -13 -5 -3 -45
-7 -89 -9 -95 -5 -112 -12 -132 -60 -19 -45 -20 -171 -1 -196 15 -19 110 -25
121 -7 3 6 19 10 36 10 24 0 29 -4 29 -23 0 -32 38 -50 65 -31 10 8 40 14 67
14 l48 0 0 36 c0 35 1 36 31 30 17 -3 38 -2 48 3 14 8 29 -1 74 -43 55 -51 57
-54 57 -104 l0 -52 -47 -2 c-70 -2 -87 1 -96 17 -10 19 -41 19 -56 1 -7 -8
-11 -27 -9 -43 2 -23 8 -29 36 -31 18 -2 32 1 32 7 0 7 32 11 85 11 l85 0 0
66 0 66 33 -6 c80 -16 112 -13 170 16 26 13 37 2 37 -37 0 -31 3 -34 33 -37
30 -3 32 -6 35 -45 2 -27 -3 -51 -13 -67 -30 -46 8 -91 55 -66 24 13 27 52 5
70 -10 9 -15 32 -15 76 l0 63 -37 3 c-34 3 -38 6 -41 32 -3 23 4 36 31 60 19
17 45 50 57 74 20 38 25 42 61 42 21 0 39 5 39 10 0 13 37 13 45 -1 11 -17 1
-22 -59 -28 -4 -1 -7 -37 -5 -80 4 -67 1 -81 -13 -90 -10 -6 -18 -18 -18 -27
0 -39 65 -60 91 -28 10 13 10 20 -4 44 -11 19 -17 50 -17 94 l0 66 35 0 c31 0
35 3 35 25 0 33 27 45 104 45 52 0 67 3 73 18 7 13 9 153 4 228 -2 20 -26 23
-87 8 -32 -7 -79 -14 -104 -14 -25 0 -56 -7 -68 -16 -18 -12 -26 -13 -37 -4
-9 8 -29 9 -56 5 -39 -7 -44 -5 -76 30 -19 20 -32 42 -30 49 2 7 36 11 98 11
l94 0 1 43 c0 23 6 48 12 54 7 7 12 24 12 39 0 35 -31 47 -65 25 -29 -19 -30
-25 -10 -52 8 -10 15 -32 15 -47 l0 -28 -77 1 c-106 2 -103 3 -103 -21 0 -15
-5 -20 -22 -17 -19 2 -23 9 -23 38 l0 34 51 -3 c61 -3 68 5 65 65 -1 31 3 45
14 52 11 6 16 19 13 38 -2 24 -8 30 -33 32 -17 2 -36 -3 -43 -10z m-25 -294
c29 -19 53 -38 53 -44 0 -19 -30 -10 -72 20 -36 26 -49 30 -110 30 -83 0 -124
-17 -173 -71 -19 -21 -39 -39 -45 -39 -17 0 -11 24 13 50 89 101 227 123 334
54z m-49 -35 c12 -5 22 -15 22 -22 0 -10 -20 -13 -77 -14 -43 0 -97 -6 -121
-13 -61 -18 -75 0 -25 30 62 38 132 44 201 19z m502 -18 c0 -13 -8 -21 -22
-23 -34 -5 -37 -38 -4 -38 34 0 34 -27 0 -40 -30 -12 -27 -36 5 -33 16 2 21
-3 21 -21 0 -21 -6 -24 -41 -28 -22 -2 -42 -2 -45 1 -2 2 -4 46 -4 97 0 100 0
100 63 103 20 1 27 -4 27 -18z m-120 -27 c0 -20 -4 -25 -17 -21 -45 12 -48 12
-48 -8 0 -13 7 -20 20 -21 46 -2 46 -2 43 -56 -3 -46 -6 -54 -31 -66 -33 -16
-64 -8 -72 20 -9 26 10 47 27 30 19 -19 48 -15 48 8 0 15 -7 20 -28 20 -38 0
-52 17 -52 62 0 43 17 57 73 58 33 0 37 -3 37 -26z m-138 -79 c4 -100 2 -105
-23 -105 -16 0 -19 7 -19 41 0 28 -4 39 -12 36 -8 -2 -13 -21 -13 -43 0 -28
-5 -39 -17 -42 -21 -4 -24 17 -20 121 l4 77 48 0 49 0 3 -85z m-132 62 c0 -7
-10 -17 -22 -22 -34 -15 -36 -45 -4 -45 34 0 34 -26 1 -34 -35 -9 -35 -46 1
-46 19 0 25 -5 22 -17 -2 -13 -15 -19 -46 -21 l-42 -3 0 100 0 101 45 0 c30 0
45 -4 45 -13z m-186 -77 c7 -62 27 -75 26 -17 -1 59 11 98 29 95 13 -3 15 -13
13 -53 -2 -28 -8 -54 -13 -59 -5 -6 -9 -20 -9 -32 0 -39 -11 -54 -40 -54 -26
0 -29 3 -35 53 -4 28 -11 67 -15 86 -6 23 -6 39 2 48 19 23 35 -3 42 -67z
m-72 -15 c1 -41 2 -85 2 -97 1 -18 -5 -23 -24 -23 -24 0 -25 2 -28 83 -2 45
-7 82 -11 82 -20 0 -30 -30 -33 -100 -3 -72 -4 -75 -29 -78 l-26 -3 5 76 c4
71 3 77 -17 82 -11 3 -21 11 -21 19 0 18 42 28 91 21 21 -3 39 -1 39 4 0 5 11
9 25 9 24 0 25 -2 27 -75z m-222 -30 c0 -74 0 -75 26 -75 19 0 25 -5 22 -17
-2 -14 -15 -19 -51 -21 l-47 -3 0 95 c0 96 0 96 25 96 24 0 25 -2 25 -75z
m-143 -11 c1 -38 2 -75 2 -81 1 -7 6 -13 11 -13 6 0 10 35 10 85 0 82 1 85 23
85 22 0 23 -3 22 -91 -2 -101 -6 -109 -66 -109 l-37 0 -4 93 c-5 89 1 112 27
103 6 -1 11 -34 12 -72z m-77 -29 c6 -94 2 -112 -24 -102 -13 5 -16 23 -16 88
0 60 -3 80 -12 76 -9 -3 -12 -23 -10 -69 5 -80 -3 -108 -29 -108 -19 0 -20 6
-18 80 1 44 -1 83 -4 86 -17 17 -27 -15 -27 -87 0 -43 -2 -79 -4 -79 -2 0 -11
-3 -20 -6 -14 -5 -16 6 -16 83 0 108 8 121 75 126 106 8 99 14 105 -88z m280
29 c0 -31 -23 -28 -28 4 -2 15 2 22 12 22 11 0 16 -9 16 -26z m450 -86 c0 -6
-24 -35 -53 -64 -42 -40 -65 -54 -106 -64 -90 -21 -171 -3 -239 56 -12 10 -22
22 -22 26 0 14 37 8 51 -8 25 -30 87 -54 140 -54 65 0 131 32 172 83 30 36 57
49 57 25z m-84 -11 c3 -3 -13 -18 -37 -34 -37 -24 -52 -28 -113 -28 -52 0 -78
5 -98 19 -15 10 -26 21 -23 25 2 4 38 7 79 5 51 -1 80 2 93 11 17 13 87 14 99
2z m-516 -67 c0 -5 -18 -10 -40 -10 -22 0 -40 5 -40 10 0 6 18 10 40 10 22 0
40 -4 40 -10z" class="color000 svgShape"/><path d="M1202 793 c4 -39 28 -42 28 -4 0 21 -5 31 -16 31 -11 0 -14 -8 -12
-27z" class="color000 svgShape"/></g></svg></svg>